<svg xmlns="http://www.w3.org/2000/svg" width="25" height="22" viewBox="0 0 25 22" fill="none" nighteye="disabled">
<path fill-rule="evenodd" clip-rule="evenodd" d="M24.8 5.8L15.8 14.8C15.7 14.9 15.6 14.9 15.4 14.9C15.3 14.9 15.1 14.9 15 14.8L10 10.8C9.8 10.6 9.8 10.3 10 10.1C10.2 9.9 10.5 9.9 10.7 10.1L15.3 13.8L24 5.1C24.2 4.9 24.5 4.9 24.7 5.1C25 5.3 25 5.6 24.8 5.8ZM17 1H3C1.9 1 1 1.9 1 3V19C1 20.1 1.9 21 3 21H17C18.1 21 19 20.1 19 19V16H20V18.9C20 20.6 18.6 22 16.9 22H3.1C1.4 22 0 20.6 0 18.9V3.1C0 1.4 1.4 0 3.1 0H16.9C18.5 0 19.9 1.3 20 3H19C19 1.9 18.1 1 17 1Z" fill="url(#paint0_linear)" stroke="url(#paint1_linear)" stroke-width="0.75"/>
<defs>
<linearGradient id="paint0_linear" x1="23.8024" y1="5.5" x2="0.555823" y2="6.96564" gradientUnits="userSpaceOnUse">
<stop stop-color="#E2C299"/>
<stop offset="1" stop-color="#C5A67C"/>
</linearGradient>
<linearGradient id="paint1_linear" x1="23.8024" y1="5.5" x2="0.555823" y2="6.96564" gradientUnits="userSpaceOnUse">
<stop stop-color="#E2C299"/>
<stop offset="1" stop-color="#C5A67C"/>
</linearGradient>
</defs>
</svg>