<svg xmlns="http://www.w3.org/2000/svg" width="24" height="24" viewBox="0 0 24 24" fill="none" nighteye="disabled">
<path fill-rule="evenodd" clip-rule="evenodd" d="M12.3998 23.5C11.7998 24.1 10.7998 24.1 10.1998 23.5L0.499805 13.8C-0.100195 13.2 -0.100195 12.2 0.499805 11.6L9.23633 2.86348C11.046 1.05382 13.5808 0.166098 16.1241 0.451328C20.0288 0.889229 23.1106 3.97104 23.5485 7.87566C23.8337 10.419 22.946 12.9538 21.1363 14.7635L12.3998 23.5ZM22.585 7.95557C22.1844 4.53216 19.4098 1.83789 15.9819 1.47707C13.7371 1.24077 11.4725 2.0273 9.87641 3.62339L1.1998 12.3C0.999805 12.5 0.999805 12.9 1.1998 13.1L10.8998 22.8C11.0998 23 11.4998 23 11.6998 22.8L20.4764 14.0234C22.0702 12.4296 22.847 10.1942 22.585 7.95557ZM13.6998 10.3C12.2998 8.9 12.2998 6.8 13.6998 5.4C15.0998 4 17.1998 4 18.5998 5.4C19.9998 6.8 19.9998 8.9 18.5998 10.3C17.2998 11.6 15.0998 11.6 13.6998 10.3ZM17.8998 6.1C16.8998 5.1 15.3998 5.1 14.3998 6.1C13.3998 7.1 13.3998 8.6 14.3998 9.6C15.3998 10.6 16.8998 10.6 17.8998 9.6C18.8998 8.6 18.8998 7 17.8998 6.1ZM4.6498 13.75C4.4565 13.5567 4.4565 13.2433 4.6498 13.05C4.8431 12.8567 5.1565 12.8567 5.3498 13.05L10.9498 18.65C11.1431 18.8433 11.1431 19.1567 10.9498 19.35C10.7565 19.5433 10.4431 19.5433 10.2498 19.35L4.6498 13.75Z" fill="url(#paint0_linear)" stroke="url(#paint1_linear)"/>
<defs>
<linearGradient id="paint0_linear" x1="22.908" y1="5.9875" x2="0.561214" y2="7.23432" gradientUnits="userSpaceOnUse">
<stop stop-color="#E2C299"/>
<stop offset="1" stop-color="#C5A67C"/>
</linearGradient>
<linearGradient id="paint1_linear" x1="22.908" y1="5.9875" x2="0.561214" y2="7.23432" gradientUnits="userSpaceOnUse">
<stop stop-color="#E2C299"/>
<stop offset="1" stop-color="#C5A67C"/>
</linearGradient>
</defs>
</svg>